<?xml version="1.0" encoding="UTF-8" standalone="no"?>
<!DOCTYPE svg PUBLIC "-//W3C//DTD SVG 1.1//EN"
 "http://www.w3.org/Graphics/SVG/1.1/DTD/svg11.dtd">
<!-- Generated by graphviz version 2.43.0 (0)
 -->
<!-- Title: mem_hierarchy Pages: 1 -->
<svg width="950pt" height="137pt"
 viewBox="0.00 0.00 950.00 136.50" xmlns="http://www.w3.org/2000/svg" xmlns:xlink="http://www.w3.org/1999/xlink">
<g id="graph0" class="graph" transform="scale(1 1) rotate(0) translate(4 132.5)">
<title>mem_hierarchy</title>
<polygon fill="white" stroke="transparent" points="-4,4 -4,-132.5 946,-132.5 946,4 -4,4"/>
<!-- cpu -->
<g id="node1" class="node">
<title>cpu</title>
<path fill="#eef2ff" stroke="#4338ca" d="M122.5,-108C122.5,-108 68.5,-108 68.5,-108 62.5,-108 56.5,-102 56.5,-96 56.5,-96 56.5,-84 56.5,-84 56.5,-78 62.5,-72 68.5,-72 68.5,-72 122.5,-72 122.5,-72 128.5,-72 134.5,-78 134.5,-84 134.5,-84 134.5,-96 134.5,-96 134.5,-102 128.5,-108 122.5,-108"/>
<text text-anchor="middle" x="95.5" y="-93" font-family="Helvetica,sans-Serif" font-size="10.00">CPU</text>
<text text-anchor="middle" x="95.5" y="-82" font-family="Helvetica,sans-Serif" font-size="10.00">(MEM stage)</text>
</g>
<!-- lsu -->
<g id="node2" class="node">
<title>lsu</title>
<path fill="#eef2ff" stroke="#4338ca" d="M366,-128.5C366,-128.5 280,-128.5 280,-128.5 274,-128.5 268,-122.5 268,-116.5 268,-116.5 268,-99.5 268,-99.5 268,-93.5 274,-87.5 280,-87.5 280,-87.5 366,-87.5 366,-87.5 372,-87.5 378,-93.5 378,-99.5 378,-99.5 378,-116.5 378,-116.5 378,-122.5 372,-128.5 366,-128.5"/>
<text text-anchor="middle" x="323" y="-116.5" font-family="Helvetica,sans-Serif" font-size="10.00">lsu</text>
<text text-anchor="middle" x="323" y="-105.5" font-family="Helvetica,sans-Serif" font-size="10.00">subword load/store</text>
<text text-anchor="middle" x="323" y="-94.5" font-family="Helvetica,sans-Serif" font-size="10.00">alignment</text>
</g>
<!-- cpu&#45;&gt;lsu -->
<g id="edge1" class="edge">
<title>cpu&#45;&gt;lsu</title>
<path fill="none" stroke="#555555" d="M134.75,-93.05C168.39,-95.74 218.04,-99.7 257.76,-102.87"/>
<polygon fill="#555555" stroke="#555555" points="257.65,-106.37 267.9,-103.68 258.21,-99.4 257.65,-106.37"/>
</g>
<!-- lsu&#45;&gt;cpu -->
<g id="edge8" class="edge">
<title>lsu&#45;&gt;cpu</title>
<path fill="none" stroke="#555555" d="M267.75,-89.57C261.81,-88.11 255.82,-86.87 250,-86 215.09,-80.79 175.24,-82.03 144.89,-84.46"/>
<polygon fill="#555555" stroke="#555555" points="144.23,-81 134.57,-85.35 144.84,-87.97 144.23,-81"/>
<text text-anchor="middle" x="229.5" y="-88.8" font-family="Helvetica,sans-Serif" font-size="9.00"> &#160;word(s)</text>
</g>
<!-- dcache -->
<g id="node3" class="node">
<title>dcache</title>
<path fill="#eef2ff" stroke="#4338ca" d="M586,-118.5C586,-118.5 467,-118.5 467,-118.5 461,-118.5 455,-112.5 455,-106.5 455,-106.5 455,-89.5 455,-89.5 455,-83.5 461,-77.5 467,-77.5 467,-77.5 586,-77.5 586,-77.5 592,-77.5 598,-83.5 598,-89.5 598,-89.5 598,-106.5 598,-106.5 598,-112.5 592,-118.5 586,-118.5"/>
<text text-anchor="middle" x="526.5" y="-106.5" font-family="Helvetica,sans-Serif" font-size="10.00">dcache</text>
<text text-anchor="middle" x="526.5" y="-95.5" font-family="Helvetica,sans-Serif" font-size="10.00">write&#45;through / write&#45;back</text>
<text text-anchor="middle" x="526.5" y="-84.5" font-family="Helvetica,sans-Serif" font-size="10.00">parameterised geometry</text>
</g>
<!-- lsu&#45;&gt;dcache -->
<g id="edge2" class="edge">
<title>lsu&#45;&gt;dcache</title>
<path fill="none" stroke="#555555" d="M378.26,-105.31C398.68,-104.29 422.36,-103.12 444.69,-102.01"/>
<polygon fill="#555555" stroke="#555555" points="445.02,-105.5 454.83,-101.51 444.67,-98.51 445.02,-105.5"/>
</g>
<!-- dcache&#45;&gt;lsu -->
<g id="edge7" class="edge">
<title>dcache&#45;&gt;lsu</title>
<path fill="none" stroke="#555555" d="M454.77,-87.11C435.65,-85.64 414.99,-85.41 396,-88 393.47,-88.34 390.9,-88.76 388.32,-89.22"/>
<polygon fill="#555555" stroke="#555555" points="387.43,-85.83 378.32,-91.24 388.81,-92.69 387.43,-85.83"/>
<text text-anchor="middle" x="416.5" y="-90.8" font-family="Helvetica,sans-Serif" font-size="9.00"> &#160;word(s)</text>
</g>
<!-- timing -->
<g id="node4" class="node">
<title>timing</title>
<path fill="#fef9c3" stroke="#a16207" d="M770,-119C770,-119 687,-119 687,-119 681,-119 675,-113 675,-107 675,-107 675,-95 675,-95 675,-89 681,-83 687,-83 687,-83 770,-83 770,-83 776,-83 782,-89 782,-95 782,-95 782,-107 782,-107 782,-113 776,-119 770,-119"/>
<text text-anchor="middle" x="728.5" y="-104" font-family="Helvetica,sans-Serif" font-size="10.00">mem_timing</text>
<text text-anchor="middle" x="728.5" y="-93" font-family="Helvetica,sans-Serif" font-size="10.00">access&#45;cost model</text>
</g>
<!-- dcache&#45;&gt;timing -->
<g id="edge3" class="edge">
<title>dcache&#45;&gt;timing</title>
<path fill="none" stroke="#555555" d="M598.03,-99.68C604.1,-99.8 610.16,-99.91 616,-100 631.72,-100.25 648.69,-100.44 664.53,-100.59"/>
<polygon fill="#555555" stroke="#555555" points="664.72,-104.09 674.75,-100.67 664.78,-97.09 664.72,-104.09"/>
</g>
<!-- burst -->
<g id="node6" class="node">
<title>burst</title>
<polygon fill="#fee2e2" stroke="#b91c1c" points="185,-48 0,-48 0,0 191,0 191,-42 185,-48"/>
<polyline fill="none" stroke="#b91c1c" points="185,-48 185,-42 "/>
<polyline fill="none" stroke="#b91c1c" points="191,-42 185,-42 "/>
<text text-anchor="middle" x="95.5" y="-36.8" font-family="Helvetica,sans-Serif" font-size="9.00">burst refill: LATENCY cycles for the</text>
<text text-anchor="middle" x="95.5" y="-26.8" font-family="Helvetica,sans-Serif" font-size="9.00">first word, 1 cycle per sequential word</text>
<text text-anchor="middle" x="95.5" y="-16.8" font-family="Helvetica,sans-Serif" font-size="9.00">after — this is what makes the</text>
<text text-anchor="middle" x="95.5" y="-6.8" font-family="Helvetica,sans-Serif" font-size="9.00">block&#45;size sweep mean anything</text>
</g>
<!-- dcache&#45;&gt;burst -->
<g id="edge9" class="edge">
<title>dcache&#45;&gt;burst</title>
<path fill="none" stroke="#b91c1c" stroke-dasharray="5,2" d="M454.98,-85.18C448.9,-84.1 442.84,-83.03 437,-82 354.02,-67.43 259.56,-51.38 191.22,-39.87"/>
</g>
<!-- timing&#45;&gt;dcache -->
<g id="edge6" class="edge">
<title>timing&#45;&gt;dcache</title>
<path fill="none" stroke="#555555" d="M674.88,-91.05C668.87,-90.21 662.81,-89.49 657,-89 641.19,-87.66 624.29,-87.74 608.08,-88.56"/>
<polygon fill="#555555" stroke="#555555" points="607.87,-85.07 598.1,-89.16 608.29,-92.05 607.87,-85.07"/>
<text text-anchor="middle" x="636.5" y="-91.8" font-family="Helvetica,sans-Serif" font-size="9.00"> &#160;word(s)</text>
</g>
<!-- data -->
<g id="node5" class="node">
<title>data</title>
<path fill="#eef2ff" stroke="#4338ca" d="M930,-119C930,-119 871,-119 871,-119 865,-119 859,-113 859,-107 859,-107 859,-95 859,-95 859,-89 865,-83 871,-83 871,-83 930,-83 930,-83 936,-83 942,-89 942,-95 942,-95 942,-107 942,-107 942,-113 936,-119 930,-119"/>
<text text-anchor="middle" x="900.5" y="-104" font-family="Helvetica,sans-Serif" font-size="10.00">data_mem</text>
<text text-anchor="middle" x="900.5" y="-93" font-family="Helvetica,sans-Serif" font-size="10.00">backing store</text>
</g>
<!-- timing&#45;&gt;data -->
<g id="edge4" class="edge">
<title>timing&#45;&gt;data</title>
<path fill="none" stroke="#555555" d="M782.36,-101C803.45,-101 827.65,-101 848.55,-101"/>
<polygon fill="#555555" stroke="#555555" points="848.83,-104.5 858.83,-101 848.83,-97.5 848.83,-104.5"/>
</g>
<!-- data&#45;&gt;timing -->
<g id="edge5" class="edge">
<title>data&#45;&gt;timing</title>
<path fill="none" stroke="#555555" d="M858.75,-91.55C852.82,-90.49 846.78,-89.59 841,-89 825.27,-87.4 808.3,-88.03 792.46,-89.62"/>
<polygon fill="#555555" stroke="#555555" points="791.77,-86.18 782.23,-90.8 792.57,-93.13 791.77,-86.18"/>
<text text-anchor="middle" x="820.5" y="-91.8" font-family="Helvetica,sans-Serif" font-size="9.00"> &#160;word(s)</text>
</g>
<!-- burst&#45;&gt;timing -->
<g id="edge10" class="edge">
<title>burst&#45;&gt;timing</title>
<path fill="none" stroke="#b91c1c" stroke-dasharray="5,2" d="M191.36,-27.76C292.64,-32.83 457.55,-44.15 598,-68 620.12,-71.76 644,-77.38 665.16,-82.93"/>
<polygon fill="#b91c1c" stroke="#b91c1c" points="664.43,-86.36 674.99,-85.55 666.23,-79.59 664.43,-86.36"/>
</g>
</g>
</svg>
